<svg width="25.000000" height="25.000000" viewBox="0 0 25 25" fill="none" xmlns="http://www.w3.org/2000/svg" xmlns:xlink="http://www.w3.org/1999/xlink">
	<desc>
			Created with Pixso.
	</desc>
	<defs>
		<clipPath id="clip11_403">
			<rect width="25.000000" height="25.000000" fill="white" fill-opacity="0"/>
		</clipPath>
		<linearGradient x1="1.610435" y1="23.403208" x2="23.396536" y2="1.619795" id="paint_linear_11_404_0" gradientUnits="userSpaceOnUse">
			<stop stop-color="#8E7F42"/>
			<stop offset="0.500000" stop-color="#FF543E"/>
			<stop offset="1.000000" stop-color="#C837AB"/>
		</linearGradient>
	</defs>
	<rect width="25.000000" height="25.000000" fill="#FFFFFF" fill-opacity="0"/>
	<g clip-path="url(#clip11_403)">
		<path d="M1.56 1.7C-0.41 3.74 0 5.9 0 12.49C0 17.96 -0.96 23.44 4.03 24.73C5.59 25.13 19.41 25.13 20.97 24.73C23.05 24.19 24.74 22.51 24.97 19.57C25 19.16 25 5.83 24.97 5.41C24.72 2.28 22.8 0.48 20.25 0.11C19.67 0.03 19.56 0 16.57 -3.82e-6C5.97 0 3.65 -0.47 1.56 1.7Z" fill="url(#paint_linear_11_404_0)" fill-opacity="1.000000" fill-rule="nonzero"/>
		<path d="M12.49 3.26C8.71 3.26 5.12 2.93 3.75 6.45C3.18 7.9 3.26 9.79 3.26 12.5C3.26 14.87 3.19 17.1 3.75 18.54C5.12 22.06 8.74 21.73 12.49 21.73C16.11 21.73 19.85 22.1 21.24 18.54C21.8 17.07 21.72 15.21 21.72 12.5C21.72 8.89 21.92 6.56 20.17 4.81C18.4 3.04 16 3.26 12.49 3.26L12.49 3.26ZM11.67 4.93C19.56 4.92 20.56 4.04 20.01 16.22C19.81 20.53 16.53 20.06 12.49 20.06C5.14 20.06 4.93 19.85 4.93 12.49C4.93 5.05 5.51 4.93 11.67 4.93L11.67 4.93ZM17.42 6.46C16.81 6.46 16.31 6.96 16.31 7.57C16.31 8.18 16.81 8.68 17.42 8.68C18.03 8.68 18.53 8.18 18.53 7.57C18.53 6.96 18.03 6.46 17.42 6.46ZM12.49 7.76C9.88 7.76 7.75 9.88 7.75 12.5C7.75 15.11 9.88 17.24 12.49 17.24C15.11 17.24 17.23 15.11 17.23 12.5C17.23 9.88 15.11 7.76 12.49 7.76ZM12.49 9.42C16.56 9.42 16.57 15.57 12.49 15.57C8.43 15.57 8.42 9.42 12.49 9.42Z" fill="#FFFFFF" fill-opacity="1.000000" fill-rule="nonzero"/>
	</g>
</svg>
