<svg width="25.000000" height="25.000000" viewBox="0 0 25 25" fill="none" xmlns="http://www.w3.org/2000/svg" xmlns:xlink="http://www.w3.org/1999/xlink">
	<desc>
			Created with Pixso.
	</desc>
	<defs>
		<clipPath id="clip8_49">
			<rect width="25.000000" height="25.000000" fill="white" fill-opacity="0"/>
		</clipPath>
	</defs>
	<rect width="25.000000" height="25.000000" fill="#FFFFFF" fill-opacity="0"/>
	<g clip-path="url(#clip8_49)">
		<path d="M24.99 12.5C24.99 19.4 19.4 25 12.5 25C5.59 25 0 19.4 0 12.5C0 5.59 5.59 0 12.5 0C19.4 0 24.99 5.59 24.99 12.5Z" fill="#CB2027" fill-opacity="1.000000" fill-rule="evenodd"/>
		<path d="M13.5 16.73C12.56 16.66 12.16 16.19 11.42 15.74C11.01 17.88 10.52 19.93 9.04 21C8.59 17.77 9.71 15.34 10.23 12.77C9.34 11.27 10.34 8.26 12.21 9C14.52 9.91 10.22 14.57 13.11 15.15C16.13 15.75 17.36 9.91 15.49 8.01C12.78 5.26 7.61 7.94 8.25 11.87C8.4 12.84 9.4 13.13 8.64 14.45C6.91 14.07 6.4 12.7 6.46 10.88C6.57 7.9 9.14 5.82 11.72 5.53C14.98 5.16 18.04 6.72 18.46 9.79C18.94 13.25 16.99 17 13.5 16.73Z" fill="#F1F2F2" fill-opacity="1.000000" fill-rule="nonzero"/>
	</g>
</svg>
