<svg width="25.000000" height="25.000000" viewBox="0 0 25 25" fill="none" xmlns="http://www.w3.org/2000/svg" xmlns:xlink="http://www.w3.org/1999/xlink">
	<desc>
			Created with Pixso.
	</desc>
	<defs>
		<clipPath id="clip8_29">
			<rect width="25.000000" height="25.000000" fill="white" fill-opacity="0"/>
		</clipPath>
	</defs>
	<rect width="25.000000" height="25.000000" fill="#FFFFFF" fill-opacity="0"/>
	<g clip-path="url(#clip8_29)">
		<path d="M25 12.5C25 19.4 19.4 25 12.5 25C5.59 25 0 19.4 0 12.5C0 5.59 5.59 0 12.5 0C19.4 0 25 5.59 25 12.5Z" fill="#4D76A1" fill-opacity="1.000000" fill-rule="evenodd"/>
		<path d="M12.02 17.98L13 17.98C13 17.98 13.3 17.94 13.45 17.78C13.59 17.63 13.59 17.35 13.59 17.35C13.59 17.35 13.57 16.03 14.18 15.84C14.78 15.65 15.55 17.11 16.37 17.68C16.99 18.1 17.46 18.01 17.46 18.01L19.66 17.98C19.66 17.98 20.8 17.91 20.26 17.01C20.21 16.93 19.94 16.34 18.63 15.12C17.26 13.84 17.44 14.05 19.1 11.84C20.1 10.5 20.51 9.68 20.38 9.33C20.26 8.99 19.52 9.08 19.52 9.08L17.05 9.1C17.05 9.1 16.87 9.07 16.73 9.15C16.6 9.23 16.51 9.42 16.51 9.42C16.51 9.42 16.12 10.46 15.6 11.34C14.5 13.21 14.06 13.31 13.88 13.19C13.47 12.92 13.57 12.11 13.57 11.53C13.57 9.72 13.85 8.96 13.04 8.77C12.77 8.7 12.57 8.66 11.89 8.66C11 8.65 10.26 8.66 9.84 8.86C9.56 9 9.34 9.31 9.47 9.33C9.64 9.35 10 9.43 10.2 9.69C10.45 10.04 10.44 10.81 10.44 10.81C10.44 10.81 10.59 12.94 10.1 13.2C9.77 13.38 9.32 13.01 8.34 11.32C7.83 10.45 7.46 9.49 7.46 9.49C7.46 9.49 7.38 9.32 7.25 9.22C7.09 9.1 6.87 9.07 6.87 9.07L4.53 9.08C4.53 9.08 4.18 9.09 4.05 9.24C3.93 9.38 4.04 9.66 4.04 9.66C4.04 9.66 5.87 13.96 7.95 16.12C9.86 18.11 12.02 17.98 12.02 17.98Z" fill="#FFFFFF" fill-opacity="1.000000" fill-rule="evenodd"/>
	</g>
</svg>
